<?xml version="1.0" standalone="no"?>
<!DOCTYPE svg PUBLIC "-//W3C//DTD SVG 20010904//EN"
 "http://www.w3.org/TR/2001/REC-SVG-20010904/DTD/svg10.dtd">
<svg version="1.0" xmlns="http://www.w3.org/2000/svg"
 width="700.000000pt" height="700.000000pt" viewBox="0 0 700.000000 700.000000"
 preserveAspectRatio="xMidYMid meet">
<metadata>
Created by potrace 1.14, written by Peter Selinger 2001-2017
</metadata>
<g transform="translate(0.000000,700.000000) scale(0.100000,-0.100000)"
fill="#000000" stroke="none">
<path d="M3265 6704 c-814 -81 -1497 -389 -2049 -924 -529 -514 -853 -1146
-963 -1885 -26 -173 -26 -688 0 -860 56 -372 146 -662 307 -990 226 -459 569
-868 992 -1181 404 -299 910 -515 1398 -598 293 -49 670 -61 951 -31 657 73
1272 333 1776 752 111 92 320 300 416 414 404 480 662 1084 732 1714 21 186
21 519 0 700 -88 757 -417 1425 -962 1956 -512 498 -1130 801 -1863 910 -105
16 -198 21 -415 24 -154 1 -298 1 -320 -1z m576 -134 c910 -90 1719 -544 2261
-1267 327 -437 532 -956 593 -1503 17 -156 20 -481 5 -631 -61 -603 -291
-1163 -675 -1644 -44 -55 -147 -167 -230 -250 -514 -513 -1158 -822 -1900
-911 -187 -22 -532 -22 -720 0 -388 46 -739 151 -1076 319 -453 227 -823 534
-1123 934 -325 433 -519 909 -598 1473 -20 148 -17 633 5 785 104 696 402
1290 892 1780 513 513 1204 839 1935 914 122 12 510 13 631 1z"/>
<path d="M3410 5894 c-954 -112 -1776 -772 -2073 -1664 -91 -272 -121 -467
-122 -770 0 -297 26 -471 111 -742 l38 -118 762 0 c419 0 770 -3 779 -6 36
-14 57 -104 39 -171 l-6 -23 -359 0 -359 0 0 -50 0 -50 340 0 c202 0 340 -4
340 -9 0 -5 -61 -189 -135 -408 -74 -219 -135 -402 -135 -408 0 -9 191 -79
195 -72 1 1 69 202 151 447 l150 445 251 3 252 2 -189 -562 c-104 -310 -191
-570 -195 -579 -4 -12 14 -21 87 -45 50 -16 96 -29 101 -29 6 0 18 23 27 50 9
28 101 301 204 607 l188 558 249 0 c193 0 249 -3 248 -12 0 -7 -96 -294 -212
-638 l-212 -625 69 -3 c117 -5 390 56 606 135 243 90 538 261 740 431 182 152
427 428 483 542 28 57 32 75 32 150 0 47 -3 93 -7 103 -7 16 -46 17 -624 17
-489 0 -615 3 -612 12 42 113 122 357 118 360 -3 2 -50 1 -105 -2 l-100 -5
-67 -180 -67 -180 -250 -3 c-148 -1 -251 1 -251 7 0 5 63 195 140 421 77 227
140 414 140 417 0 2 -50 2 -112 1 l-111 -3 -141 -420 -141 -420 -254 -3 -253
-2 6 35 c4 20 7 73 7 120 0 91 -18 144 -49 146 -9 1 -238 0 -507 -1 -478 -2
-492 -1 -554 20 -287 96 -603 547 -676 964 -20 116 -19 148 6 269 90 446 370
927 715 1231 144 127 429 272 654 334 108 29 274 36 347 14 98 -29 183 -113
224 -219 31 -82 37 -236 38 -920 l1 -573 223 0 223 0 479 715 c264 393 484
714 489 715 5 0 6 -69 3 -162 -6 -172 -22 -264 -92 -549 -19 -79 -38 -182 -42
-229 -10 -140 27 -297 100 -432 l32 -58 92 0 93 0 -2 883 -3 882 -75 43 -75
43 -35 -39 c-19 -21 -107 -121 -195 -223 -282 -324 -569 -605 -675 -659 -53
-27 -78 -26 -90 6 -6 15 -10 247 -10 590 l0 564 -142 -1 c-79 -1 -195 -7 -258
-15z m2158 -3608 c49 -26 102 -103 102 -149 0 -45 -253 -329 -414 -466 -117
-99 -317 -231 -458 -302 -293 -147 -575 -227 -586 -167 -3 15 347 1062 364
1089 3 5 204 9 485 9 393 0 485 -3 507 -14z"/>
</g>
</svg>
